<svg id="レイヤー_1" data-name="レイヤー 1" xmlns="http://www.w3.org/2000/svg" width="32" height="32" viewBox="0 0 32 32">
  <title>icon_tel</title>
  <rect width="32" height="32" fill="none"/>
  <path d="M10.33,7.76c-1.23.8-1.48,3.31-1,5.36a18.44,18.44,0,0,0,2.44,5.73A19.35,19.35,0,0,0,16,23.42c1.68,1.26,4.07,2.06,5.3,1.26A6.36,6.36,0,0,0,22.9,23l-.66-1-1.83-2.82c-.14-.21-1,0-1.42.23a4.15,4.15,0,0,0-1.12,1.22c-.4.23-.74,0-1.44-.32a8.6,8.6,0,0,1-2.59-2.74A8.5,8.5,0,0,1,12.39,14c0-.77-.08-1.17.29-1.44a4.11,4.11,0,0,0,1.57-.53c.4-.3.93-1,.79-1.21L13.21,8l-.66-1A6.48,6.48,0,0,0,10.33,7.76Z" fill="#333"/>
  <path d="M16,3A13,13,0,1,1,3,16,13,13,0,0,1,16,3m0-2A15,15,0,1,0,31,16,15,15,0,0,0,16,1Z" fill="#333"/>
</svg>
