<svg id="レイヤー_1" data-name="レイヤー 1" xmlns="http://www.w3.org/2000/svg" width="412" height="128" viewBox="0 0 412 128">
  <title>logo</title>
  <rect width="412" height="128" fill="none"/>
  <g>
    <g>
      <rect x="398.03" y="1.14" width="13.65" height="73.53" fill="#231815"/>
      <polygon points="350.82 1.14 350.82 29.43 335.97 29.43 335.97 1.14 322.32 1.14 322.32 74.67 335.97 74.67 335.97 46.2 350.82 46.2 350.82 74.67 364.47 74.67 364.47 1.14 350.82 1.14" fill="#231815"/>
      <path d="M27.9,1.14l0,62.82c0,5.64-4.44,10.71-15.16,10.71H.32V61H8.68s5.57-.05,5.57-3.68V1.14Z" fill="#231815"/>
      <polygon points="74.31 74.67 87.96 74.67 87.96 57.79 102.32 1.14 88.77 1.14 81.17 41.91 73.05 1.14 60.03 1.14 74.31 57.92 74.31 74.67" fill="#231815"/>
      <path d="M162,1.14H139.56A5.52,5.52,0,0,0,134,6.66V69.15a5.52,5.52,0,0,0,5.52,5.52H162a5.52,5.52,0,0,0,5.52-5.52V6.66A5.52,5.52,0,0,0,162,1.14Zm-6.57,58.15A1.72,1.72,0,0,1,153.72,61h-5.86a1.72,1.72,0,0,1-1.73-1.73V16.52a1.72,1.72,0,0,1,1.73-1.72h5.86a1.72,1.72,0,0,1,1.72,1.72Z" fill="#231815"/>
      <rect x="204.72" y="1.14" width="13.65" height="73.53" fill="#231815"/>
      <path d="M277,59.29A1.73,1.73,0,0,1,275.24,61h-5.86a1.72,1.72,0,0,1-1.72-1.73V16.52a1.72,1.72,0,0,1,1.72-1.72h5.86A1.73,1.73,0,0,1,277,16.52V30.88h12.08V6.66a5.52,5.52,0,0,0-5.51-5.52H261.08a5.52,5.52,0,0,0-5.51,5.52V69.15a5.52,5.52,0,0,0,5.51,5.52h22.46a5.52,5.52,0,0,0,5.51-5.52V44.93H277Z" fill="#231815"/>
    </g>
    <g>
      <path d="M40.05,115.41v-5.74c0-.34-.67-.84-1.72-.84H35.22c-1,0-1.71.5-1.71.84V126c0,.39.75.84,1.71.84h3.11c1,0,1.72-.45,1.72-.84v-5.73H38.7v5.11c0,.6-.6,1-1.36,1H36.21a1.2,1.2,0,0,1-1.34-1v-15.1a1.21,1.21,0,0,1,1.34-1.05h1.13a1.2,1.2,0,0,1,1.33,1.05v5.12Z" fill="#231815"/>
      <path d="M290.78,108.83c-1,0-1.72.5-1.72.84V126c0,.39.75.84,1.72.84h3.1c1,0,1.72-.45,1.72-.84V109.67c0-.34-.66-.84-1.72-.84Zm3.48,16.56c0,.6-.58,1-1.35,1h-1.15c-.78,0-1.34-.45-1.34-1v-15.1a1.2,1.2,0,0,1,1.34-1.05h1.15a1.21,1.21,0,0,1,1.35,1.05Z" fill="#231815"/>
      <path d="M389.77,108.83c-1,0-1.72.5-1.72.84V126c0,.39.76.84,1.72.84h3.1c1,0,1.72-.45,1.72-.84V109.67c0-.34-.66-.84-1.72-.84Zm3.48,16.56c0,.6-.58,1-1.34,1h-1.16c-.78,0-1.34-.45-1.34-1v-15.1a1.21,1.21,0,0,1,1.34-1.05h1.16a1.21,1.21,0,0,1,1.34,1.05Z" fill="#231815"/>
      <path d="M4.51,109.23h2v-.4h-4A2.3,2.3,0,0,0,0,111v13.65a2.3,2.3,0,0,0,2.52,2.19h4v-.41h-2c-2.71,0-3-.57-3.16-1.71v-6.67H6.54v-.45H1.35V111C1.5,109.8,1.8,109.23,4.51,109.23Z" fill="#231815"/>
      <path d="M54.77,109.23h2v-.4h-4A2.3,2.3,0,0,0,50.27,111v13.65a2.3,2.3,0,0,0,2.52,2.19h4v-.41h-2c-2.7,0-3-.57-3.15-1.71v-6.67H56.8v-.45H51.62V111C51.77,109.8,52.07,109.23,54.77,109.23Z" fill="#231815"/>
      <path d="M101.64,109.23h2v-.4h-4A2.3,2.3,0,0,0,97.14,111v13.65a2.3,2.3,0,0,0,2.52,2.19h4v-.41h-2c-2.7,0-3-.57-3.15-1.71v-6.67h5.19v-.45H98.49V111C98.64,109.8,98.94,109.23,101.64,109.23Z" fill="#231815"/>
      <path d="M179.43,109.23h2v-.4h-4a2.3,2.3,0,0,0-2.53,2.19v13.65a2.3,2.3,0,0,0,2.53,2.19h4v-.41h-2c-2.71,0-3-.57-3.15-1.71v-6.67h5.18v-.45h-5.18V111C176.43,109.8,176.72,109.23,179.43,109.23Z" fill="#231815"/>
      <path d="M67,108.83v15.9a2.28,2.28,0,0,0,2.53,2.13h4v-.41h-2c-2.71,0-3.09-.7-3.15-1.65v-16Z" fill="#231815"/>
      <path d="M82.08,108.83v15.9a2.28,2.28,0,0,0,2.52,2.13h4v-.41h-2c-2.71,0-3.09-.7-3.16-1.65v-16Z" fill="#231815"/>
      <path d="M371.9,108.83v15.9a2.27,2.27,0,0,0,2.52,2.13h4v-.41h-2c-2.71,0-3.08-.7-3.15-1.65v-16Z" fill="#231815"/>
      <path d="M191.9,108.83v15.9a2.28,2.28,0,0,0,2.52,2.13h4v-.41h-2c-2.7,0-3.08-.7-3.15-1.65v-16Z" fill="#231815"/>
      <polygon points="135.46 108.83 128.92 108.83 128.92 109.27 131.51 109.27 131.51 126.86 132.87 126.86 132.87 109.27 135.46 109.27 135.46 108.83" fill="#231815"/>
      <polygon points="265.18 108.83 258.64 108.83 258.64 109.27 261.23 109.27 261.23 126.86 262.58 126.86 262.58 109.27 265.18 109.27 265.18 108.83" fill="#231815"/>
      <polygon points="23.48 108.84 22.24 108.84 20.04 115.86 17.84 108.84 16.6 108.84 19.42 117.84 16.6 126.84 17.84 126.84 20.04 119.82 22.24 126.84 23.48 126.84 20.66 117.84 23.48 108.84" fill="#231815"/>
      <polygon points="232.02 108.84 230.78 108.84 228.58 115.86 226.38 108.84 225.14 108.84 227.96 117.84 225.14 126.84 226.38 126.84 228.58 119.82 230.78 126.84 232.02 126.84 229.2 117.84 232.02 108.84" fill="#231815"/>
      <rect x="276.02" y="108.84" width="1.35" height="18" fill="#231815"/>
      <path d="M213,108.83h-3.1c-1,0-1.72.5-1.72.84v17.18h1.35v-8.78h3.84v8.78h1.35V109.67C214.7,109.33,214,108.83,213,108.83Zm-3.47,8.79v-7.33a1.21,1.21,0,0,1,1.34-1.05H212a1.21,1.21,0,0,1,1.34,1.05v7.33Z" fill="#231815"/>
      <path d="M247.28,108.83h-3.1c-1.05,0-1.72.5-1.72.84v17.18h1.35v-8.78h3.84v8.78H249V109.67C249,109.33,248.33,108.83,247.28,108.83Zm-3.47,8.79v-7.33a1.21,1.21,0,0,1,1.34-1.05h1.16a1.21,1.21,0,0,1,1.34,1.05v7.33Z" fill="#231815"/>
      <path d="M359.9,108.83h-3.1c-1.05,0-1.72.5-1.72.84v17.18h1.35v-8.78h3.84v8.78h1.35V109.67C361.62,109.33,361,108.83,359.9,108.83Zm.37,8.79h-3.84v-7.33a1.21,1.21,0,0,1,1.34-1.05h1.16a1.21,1.21,0,0,1,1.34,1.05Z" fill="#231815"/>
      <path d="M163.11,108.83H160c-1,0-1.72.5-1.72.84v17.18h1.35v-8.8l3.7,8.8h1.36l-3.7-8.78h2.11c1,0,1.72-.5,1.72-.84v-7.56C164.83,109.33,164.16,108.83,163.11,108.83Zm.37,1.91v5.87a1.21,1.21,0,0,1-1.34,1H161a1.22,1.22,0,0,1-1.34-1v-5h0v-1.35a1.21,1.21,0,0,1,1.34-1.05h1.16a1.21,1.21,0,0,1,1.34,1.05Z" fill="#231815"/>
      <path d="M344.87,115.41v-5.74c0-.34-.67-.84-1.72-.84h-3.1c-1.05,0-1.72.5-1.72.84v8.17c0,.11.11.22.44.22h4.75v7.33a1.21,1.21,0,0,1-1.35,1H341a1.2,1.2,0,0,1-1.34-1v-5.11h-1.35V126c0,.34.66.84,1.72.84h3.1c1,0,1.72-.5,1.72-.84v-8.17c0-.11-.12-.22-.46-.22h-4.73v-7.33a1.2,1.2,0,0,1,1.34-1.05h1.15a1.21,1.21,0,0,1,1.35,1.05v5.12Z" fill="#231815"/>
      <polygon points="118.48 108.84 118.48 122.63 114.42 108.84 113.19 108.84 113.07 108.84 113.07 126.84 114.42 126.84 114.42 113.05 118.48 126.84 119.72 126.84 119.83 126.84 119.83 108.84 118.48 108.84" fill="#231815"/>
      <polygon points="311.84 108.86 311.84 122.64 307.78 108.86 306.54 108.86 306.43 108.86 306.43 126.85 307.78 126.85 307.78 113.06 311.84 126.85 313.08 126.85 313.19 126.85 313.19 108.86 311.84 108.86" fill="#231815"/>
      <polygon points="410.65 108.84 410.65 122.63 406.59 108.84 405.35 108.84 405.24 108.84 405.24 126.84 406.59 126.84 406.59 113.05 410.65 126.84 411.89 126.84 412 126.84 412 108.84 410.65 108.84" fill="#231815"/>
    </g>
  </g>
</svg>
